<svg width="32" height="32" viewBox="0 0 32 32" fill="none" xmlns="http://www.w3.org/2000/svg">
    <path d="M30 10.9976V23.0031C30 24.1066 29.1023 25.0042 27.9991 25.0042H22.0029V23.0039L27.9991 23.0032V10.9976H18.9858V13.9989H16.9849V10.9976C16.9849 9.89428 17.8826 8.99669 18.9858 8.99669H27.9991C29.1024 8.99669 30 9.89438 30 10.9976ZM9.9919 16H4.0009V5.99528L18.65 5.99278C18.6897 6.00978 18.7846 6.13038 18.7846 6.32908V6.99568H20.7855V6.32908C20.7855 5.04178 19.8341 3.99438 18.6648 3.99438H3.9943C2.7642 3.99438 2 4.76118 2 5.99528V18.001H9.9919V16.0001V16ZM19.9953 26.0046V18.001C19.9953 16.8977 19.0976 16.0001 17.9944 16.0001H13.9925C12.8892 16.0001 11.9916 16.8978 11.9916 18.001V26.0046C11.9916 27.1081 12.8893 28.0057 13.9925 28.0057H17.9944C19.0977 28.0057 19.9953 27.108 19.9953 26.0046ZM17.9944 18.001L17.9956 26.0048L13.9925 26.0046V18.001H17.9944Z" fill="black"/>
</svg>
