<svg width="32" height="32" viewBox="0 0 32 32" fill="none" xmlns="http://www.w3.org/2000/svg">
    <path d="M30 23.0031V10.9976C30 9.89438 29.1024 8.99669 27.9991 8.99669H18.9858C17.8826 8.99669 16.9849 9.89428 16.9849 10.9976V13.9989H18.9858V10.9976H27.9991V23.0032L22.0029 23.0039V25.0042H27.9991C29.1023 25.0042 30 24.1066 30 23.0031Z" fill="black"/>
    <path d="M4.0009 18H9.9919V20.001H2V5.99528C2 4.76118 2.7642 3.99438 3.9943 3.99438H18.6648C19.8341 3.99438 20.7855 5.04178 20.7855 6.32908V6.99568H18.7846V6.32908C18.7846 6.13038 18.6897 6.00978 18.65 5.99278L4.0009 5.99528V18Z" fill="black"/>
    <path fill-rule="evenodd" clip-rule="evenodd" d="M19.9953 18.001V26.0046C19.9953 27.108 19.0977 28.0057 17.9944 28.0057H13.9925C12.8893 28.0057 11.9916 27.1081 11.9916 26.0046V18.001C11.9916 16.8978 12.8892 16.0001 13.9925 16.0001H17.9944C19.0976 16.0001 19.9953 16.8977 19.9953 18.001ZM17.9956 26.0048L17.9944 18.001H13.9925V26.0046L17.9956 26.0048Z" fill="black"/>
    <path d="M9 8H11V11H14V13H11V16H9V13H6V11L9 11V8Z" fill="black"/>
</svg>
