<svg width="128" height="128" viewBox="0 0 128 128" fill="none" xmlns="http://www.w3.org/2000/svg">
<path d="M58.3991 12.4751L11.4227 91.4773C10.2378 93.4741 11.6838 96 14.0236 96H107.976C110.316 96 111.762 93.4741 110.577 91.4773L63.5908 12.4751C62.426 10.5083 59.564 10.5083 58.3991 12.4751Z" fill="#EB140A"/>
<path d="M16.4228 100.477L63.3992 21.4754C64.564 19.5083 67.8352 19.5332 69 21.5002L69.4339 22.2359C68.1865 20.5118 65.5147 20.5916 64.3991 22.4753L17.4227 101.477C16.566 102.921 17.0846 104.641 18.322 105.484C16.6286 104.43 15.5157 102.006 16.4228 100.477Z" fill="#FDC9C4"/>
<path d="M19.7464 105.988C19.8306 105.996 19.9153 106 20.0002 106L20.0051 106C19.9176 105.999 19.8313 105.995 19.7464 105.988Z" fill="#FDC9C4"/>
<path d="M64.3991 22.4753L17.4227 101.477C16.2378 103.474 17.6838 106 20.0236 106H113.976C116.316 106 117.762 103.474 116.577 101.477L69.5908 22.4753C68.426 20.5082 65.564 20.5082 64.3991 22.4753Z" fill="#FA8A80"/>
<mask id="mask0_7742_262" style="mask-type:alpha" maskUnits="userSpaceOnUse" x="17" y="21" width="100" height="85">
<path d="M64.3991 22.4753L17.4227 101.477C16.2378 103.474 17.6838 106 20.0236 106H113.976C116.316 106 117.762 103.474 116.577 101.477L69.5908 22.4753C68.426 20.5082 65.564 20.5082 64.3991 22.4753Z" fill="#FF372D"/>
</mask>
<g mask="url(#mask0_7742_262)">
<g filter="url(#filter0_f_7742_262)">
<path d="M58.3991 12.4751L11.4227 91.4773C10.2378 93.4741 11.6838 96 14.0236 96H107.976C110.316 96 111.762 93.4741 110.577 91.4773L63.5908 12.4751C62.426 10.5083 59.564 10.5083 58.3991 12.4751Z" fill="#FF372D"/>
</g>
</g>
<g filter="url(#filter1_d_7742_262)">
<path fill-rule="evenodd" clip-rule="evenodd" d="M63 43.0001H71V71.0001H63V43.0001ZM63 79.0001H71V88.0001H63V79.0001Z" fill="#FDC9C4"/>
</g>
<defs>
<filter id="filter0_f_7742_262" x="9" y="9" width="104" height="89" filterUnits="userSpaceOnUse" color-interpolation-filters="sRGB">
<feFlood flood-opacity="0" result="BackgroundImageFix"/>
<feBlend mode="normal" in="SourceGraphic" in2="BackgroundImageFix" result="shape"/>
<feGaussianBlur stdDeviation="1" result="effect1_foregroundBlur_7742_262"/>
</filter>
<filter id="filter1_d_7742_262" x="61" y="42.0001" width="12" height="49" filterUnits="userSpaceOnUse" color-interpolation-filters="sRGB">
<feFlood flood-opacity="0" result="BackgroundImageFix"/>
<feColorMatrix in="SourceAlpha" type="matrix" values="0 0 0 0 0 0 0 0 0 0 0 0 0 0 0 0 0 0 127 0" result="hardAlpha"/>
<feOffset dy="1"/>
<feGaussianBlur stdDeviation="1"/>
<feColorMatrix type="matrix" values="0 0 0 0 0.72549 0 0 0 0 0.0392157 0 0 0 0 0.0196078 0 0 0 0.5 0"/>
<feBlend mode="normal" in2="BackgroundImageFix" result="effect1_dropShadow_7742_262"/>
<feBlend mode="normal" in="SourceGraphic" in2="effect1_dropShadow_7742_262" result="shape"/>
</filter>
</defs>
</svg>
